# This file uses centimeters as units for non-parametric coordinates.

mtllib TriangularBush5.mtl
g default
v -5.191222 -0.042707 -10.614108
v -6.136360 -0.042707 -9.330614
v -6.136360 -0.042707 -7.744128
v -5.191222 -0.042707 -6.460635
v -3.683929 -0.042707 -5.970384
v -2.151547 -0.042707 -6.460635
v -1.184120 -0.042707 -7.744129
v -1.184120 -0.042707 -9.330614
v -2.151548 -0.042707 -10.614108
v -3.683930 -0.042707 -11.104359
v -5.158846 0.979741 -10.198761
v -6.016507 1.026234 -9.171966
v -6.016507 1.026234 -7.902777
v -5.158846 0.979741 -6.875982
v -3.926743 0.984088 -6.483781
v -2.690539 0.984088 -6.875982
v -1.896102 0.984088 -7.902777
v -1.896102 0.984088 -9.171966
v -2.690540 0.984088 -10.198761
v -3.926743 0.984088 -10.590962
v -4.681068 2.500095 -9.783414
v -5.343564 2.466320 -9.013317
v -5.343564 2.466320 -8.061426
v -4.681068 2.500096 -7.291329
v -3.681717 2.687385 -6.997179
v -2.752050 2.931529 -7.291330
v -2.198966 3.071272 -8.061426
v -2.198966 3.071271 -9.013317
v -2.752050 2.931528 -9.783414
v -3.681717 2.687385 -10.077564
v -4.140041 4.167754 -9.368066
v -4.487802 3.959749 -8.854669
v -4.487802 3.959749 -8.220074
v -4.140041 4.167755 -7.706677
v -3.610702 4.576547 -7.510576
v -3.113612 5.044742 -7.706677
v -2.814937 5.348180 -8.220075
v -2.814937 5.348180 -8.854669
v -3.113612 5.044742 -9.368066
v -3.610702 4.576547 -9.564167
v -4.648457 5.243616 -8.952719
v -4.801689 5.151499 -8.696020
v -4.801690 5.151501 -8.378723
v -4.648456 5.243616 -8.122024
v -4.399106 5.395129 -8.023974
v -4.157232 5.558268 -8.122024
v -4.010337 5.663797 -8.378723
v -4.010338 5.663795 -8.696020
v -4.157232 5.558268 -8.952719
v -4.399106 5.395129 -9.050769
v -5.219216 6.281238 -8.537372
v -1.954102 -0.042707 -8.295610
v -3.196895 -0.042707 -9.185725
v -4.436335 -0.042707 -10.073440
v -2.911842 -0.042707 -7.008220
v -4.142046 -0.042707 -7.894250
v -5.377418 -0.042707 -8.784003
vt 0.702254 0.103054
vt 0.577254 0.012236
vt 0.422746 0.012236
vt 0.297746 0.103054
vt 0.250000 0.250000
vt 0.297746 0.396946
vt 0.422746 0.487764
vt 0.577254 0.487764
vt 0.702254 0.396946
vt 0.750000 0.250000
vt 0.250000 0.500000
vt 0.300000 0.500000
vt 0.350000 0.500000
vt 0.400000 0.500000
vt 0.450000 0.500000
vt 0.500000 0.500000
vt 0.550000 0.500000
vt 0.600000 0.500000
vt 0.650000 0.500000
vt 0.700000 0.500000
vt 0.750000 0.500000
vt 0.300000 0.600000
vt 0.340000 0.600000
vt 0.380000 0.600000
vt 0.420000 0.600000
vt 0.460000 0.600000
vt 0.500000 0.600000
vt 0.540000 0.600000
vt 0.580000 0.600000
vt 0.620000 0.600000
vt 0.660000 0.600000
vt 0.700000 0.600000
vt 0.350000 0.700000
vt 0.380000 0.700000
vt 0.410000 0.700000
vt 0.440000 0.700000
vt 0.470000 0.700000
vt 0.500000 0.700000
vt 0.530000 0.700000
vt 0.560000 0.700000
vt 0.590000 0.700000
vt 0.620000 0.700000
vt 0.650000 0.700000
vt 0.400000 0.800000
vt 0.420000 0.800000
vt 0.440000 0.800000
vt 0.460000 0.800000
vt 0.480000 0.800000
vt 0.500000 0.800000
vt 0.520000 0.800000
vt 0.540000 0.800000
vt 0.560000 0.800000
vt 0.580000 0.800000
vt 0.600000 0.800000
vt 0.450000 0.900000
vt 0.460000 0.900000
vt 0.470000 0.900000
vt 0.480000 0.900000
vt 0.490000 0.900000
vt 0.500000 0.900000
vt 0.510000 0.900000
vt 0.520000 0.900000
vt 0.530000 0.900000
vt 0.540000 0.900000
vt 0.550000 0.900000
vt 0.500000 1.000000
vt 0.476455 0.414529
vt 0.563143 0.295876
vt 0.649598 0.177054
vt 0.351075 0.323436
vt 0.437366 0.204494
vt 0.524020 0.085816
vn -0.514885 0.319707 -0.795412
vn -0.921989 0.180282 -0.342687
vn -0.899131 0.306637 -0.312310
vn -0.551408 0.336869 -0.763197
vn -0.921989 0.180282 0.342687
vn -0.899131 0.306637 0.312310
vn -0.514885 0.319707 0.795412
vn -0.551408 0.336868 0.763197
vn 0.040051 0.452602 0.890813
vn -0.033947 0.363147 0.931113
vn 0.510155 0.536162 0.672512
vn 0.519070 0.364017 0.773342
vn 0.774753 0.579832 0.252095
vn 0.878797 0.367891 0.303927
vn 0.774753 0.579832 -0.252095
vn 0.878797 0.367891 -0.303927
vn 0.510155 0.536162 -0.672512
vn 0.519070 0.364017 -0.773342
vn 0.040051 0.452602 -0.890813
vn -0.033947 0.363147 -0.931113
vn -0.841217 0.447068 -0.304112
vn -0.539559 0.371849 -0.755384
vn -0.841217 0.447068 0.304112
vn -0.539559 0.371849 0.755384
vn -0.021844 0.279055 0.960027
vn 0.567550 0.219015 0.793675
vn 0.930510 0.206650 0.302403
vn 0.930510 0.206650 -0.302403
vn 0.567550 0.219015 -0.793675
vn -0.021844 0.279055 -0.960027
vn -0.895142 0.316522 -0.313904
vn -0.565204 0.268555 -0.780015
vn -0.895142 0.316522 0.313904
vn -0.565204 0.268555 0.780015
vn -0.037195 0.283298 0.958310
vn 0.514111 0.385585 0.766169
vn 0.832308 0.476152 0.283801
vn 0.832308 0.476152 -0.283801
vn 0.514111 0.385585 -0.766169
vn -0.037195 0.283298 -0.958310
vn -0.925727 -0.229211 -0.300819
vn -0.647502 -0.014849 -0.761919
vn -0.925727 -0.229211 0.300819
vn -0.647502 -0.014849 0.761919
vn -0.264495 0.318697 0.910206
vn 0.067313 0.672185 0.737317
vn 0.263269 0.921220 0.286431
vn 0.263270 0.921219 -0.286433
vn 0.067313 0.672186 -0.737316
vn -0.264495 0.318697 -0.910206
vn 0.000000 -1.000000 0.000000
vn -0.000000 -1.000000 -0.000000
vn -0.000000 -1.000000 -0.000000
vn -0.801562 -0.218058 -0.556731
vn -0.937990 -0.346661 -0.000000
vn -0.801561 -0.218058 0.556732
vn -0.427243 0.123511 0.895661
vn 0.007747 0.506662 0.862110
vn 0.335012 0.788459 0.515848
vn 0.454861 0.890563 -0.000008
vn 0.335016 0.788462 -0.515841
vn 0.007746 0.506662 -0.862110
vn -0.427243 0.123511 -0.895661
vn -0.000000 -1.000000 -0.000000
vn 0.000000 -1.000000 0.000000
vn 0.000000 -1.000000 0.000000
vn -0.000000 -1.000000 -0.000000
vn 0.000000 -1.000000 0.000000
vn 0.000000 -1.000000 0.000000
vn 0.000000 -1.000000 0.000000
vn -0.000000 -1.000000 -0.000000
vn -0.000000 -1.000000 -0.000000
vn 0.000000 -1.000000 0.000000
vn 0.000000 -1.000000 0.000000
vn -0.000000 -1.000000 -0.000000
vn -0.000000 -1.000000 -0.000000
s 1
g pCone2
usemtl initialShadingGroup
f 1/11/1 2/12/2 12/23/3 11/22/4
f 2/12/2 3/13/5 13/24/6 12/23/3
f 3/13/5 4/14/7 14/25/8 13/24/6
f 4/14/7 5/15/9 15/26/10 14/25/8
f 5/15/9 6/16/11 16/27/12 15/26/10
f 6/16/11 7/17/13 17/28/14 16/27/12
f 7/17/13 8/18/15 18/29/16 17/28/14
f 8/18/15 9/19/17 19/30/18 18/29/16
f 9/19/17 10/20/19 20/31/20 19/30/18
f 10/20/19 1/21/1 11/32/4 20/31/20
f 11/22/4 12/23/3 22/34/21 21/33/22
f 12/23/3 13/24/6 23/35/23 22/34/21
f 13/24/6 14/25/8 24/36/24 23/35/23
f 14/25/8 15/26/10 25/37/25 24/36/24
f 15/26/10 16/27/12 26/38/26 25/37/25
f 16/27/12 17/28/14 27/39/27 26/38/26
f 17/28/14 18/29/16 28/40/28 27/39/27
f 18/29/16 19/30/18 29/41/29 28/40/28
f 19/30/18 20/31/20 30/42/30 29/41/29
f 20/31/20 11/32/4 21/43/22 30/42/30
f 21/33/22 22/34/21 32/45/31 31/44/32
f 22/34/21 23/35/23 33/46/33 32/45/31
f 23/35/23 24/36/24 34/47/34 33/46/33
f 24/36/24 25/37/25 35/48/35 34/47/34
f 25/37/25 26/38/26 36/49/36 35/48/35
f 26/38/26 27/39/27 37/50/37 36/49/36
f 27/39/27 28/40/28 38/51/38 37/50/37
f 28/40/28 29/41/29 39/52/39 38/51/38
f 29/41/29 30/42/30 40/53/40 39/52/39
f 30/42/30 21/43/22 31/54/32 40/53/40
f 31/44/32 32/45/31 42/56/41 41/55/42
f 32/45/31 33/46/33 43/57/43 42/56/41
f 33/46/33 34/47/34 44/58/44 43/57/43
f 34/47/34 35/48/35 45/59/45 44/58/44
f 35/48/35 36/49/36 46/60/46 45/59/45
f 36/49/36 37/50/37 47/61/47 46/60/46
f 37/50/37 38/51/38 48/62/48 47/61/47
f 38/51/38 39/52/39 49/63/49 48/62/48
f 39/52/39 40/53/40 50/64/50 49/63/49
f 40/53/40 31/54/32 41/65/42 50/64/50
s 2
f 7/7/51 52/67/52 8/8/53
s 1
f 41/55/42 42/56/41 51/66/54
f 42/56/41 43/57/43 51/66/55
f 43/57/43 44/58/44 51/66/56
f 44/58/44 45/59/45 51/66/57
f 45/59/45 46/60/46 51/66/58
f 46/60/46 47/61/47 51/66/59
f 47/61/47 48/62/48 51/66/60
f 48/62/48 49/63/49 51/66/61
f 49/63/49 50/64/50 51/66/62
f 50/64/50 41/65/42 51/66/63
s 2
f 53/68/64 54/69/65 10/10/66 9/9/67
f 52/67/52 53/68/64 9/9/67 8/8/53
f 1/1/68 10/10/66 54/69/65
f 6/6/69 55/70/70 52/67/52 7/7/51
f 55/70/70 56/71/71 53/68/64 52/67/52
f 56/71/71 57/72/72 54/69/65 53/68/64
f 1/1/68 54/69/65 57/72/72 2/2/73
f 5/5/74 55/70/70 6/6/69
f 4/4/75 56/71/71 55/70/70 5/5/74
f 3/3/76 57/72/72 56/71/71 4/4/75
f 2/2/73 57/72/72 3/3/76
