# This file uses centimeters as units for non-parametric coordinates.

mtllib TriangularBush2.mtl
g default
v 2.355633 -0.017452 5.154384
v 0.449388 -0.017452 3.769416
v -1.906860 -0.017452 3.769416
v -3.813105 -0.017452 5.154384
v -4.541225 -0.017452 7.395309
v -3.813104 -0.017452 9.636234
v -1.906860 -0.017452 11.021202
v 0.449388 -0.017452 11.021202
v 2.355633 -0.017452 9.636234
v 3.083753 -0.017452 7.395309
v 1.080416 1.583397 5.602569
v -0.412766 1.587928 4.494594
v -2.270241 1.587973 4.494595
v -3.775157 1.587973 5.602569
v -4.350219 1.587973 7.395309
v -3.775156 1.587973 9.188049
v -2.270240 1.587973 10.296023
v -0.412766 1.587928 10.296023
v 1.080416 1.583397 9.188049
v 1.648110 1.578404 7.395309
v 0.020098 3.101256 6.050754
v -1.063962 3.185709 5.219773
v -2.390675 3.237053 5.219773
v -3.477653 3.251236 6.050754
v -3.892547 3.248522 7.395309
v -3.477652 3.251236 8.739864
v -2.390674 3.237053 9.570845
v -1.063961 3.185709 9.570845
v 0.020098 3.101256 8.739864
v 0.438462 3.067002 7.395309
v -0.222156 5.873909 6.498939
v -0.944860 5.973624 5.944952
v -1.829929 6.158117 5.944952
v -2.546962 6.344058 6.498939
v -2.820007 6.414967 7.395309
v -2.546962 6.344058 8.291679
v -1.829929 6.158117 8.845666
v -0.944860 5.973624 8.845666
v -0.222156 5.873909 8.291679
v 0.053999 5.853660 7.395309
v -0.313569 9.291119 6.947124
v -0.675890 9.314693 6.670130
v -1.106196 9.367102 6.670130
v -1.435164 9.434470 6.947124
v -1.544658 9.469074 7.395309
v -1.435164 9.434470 7.843494
v -1.106196 9.367102 8.120488
v -0.675891 9.314692 8.120488
v -0.313569 9.291119 7.843494
v -0.186978 9.293431 7.395309
v -0.932455 11.824559 7.395309
v -1.906860 -0.017452 7.395309
v 0.449388 -0.017452 7.395309
v -1.906860 -0.017452 9.636234
v 0.449388 -0.017452 9.636234
v -1.906860 -0.017452 5.154384
v 0.449388 -0.017452 5.154383
vt 0.702254 0.103054
vt 0.577254 0.012236
vt 0.422746 0.012236
vt 0.297746 0.103054
vt 0.250000 0.250000
vt 0.297746 0.396946
vt 0.422746 0.487764
vt 0.577254 0.487764
vt 0.702254 0.396946
vt 0.750000 0.250000
vt 0.250000 0.500000
vt 0.300000 0.500000
vt 0.350000 0.500000
vt 0.400000 0.500000
vt 0.450000 0.500000
vt 0.500000 0.500000
vt 0.550000 0.500000
vt 0.600000 0.500000
vt 0.650000 0.500000
vt 0.700000 0.500000
vt 0.750000 0.500000
vt 0.300000 0.600000
vt 0.340000 0.600000
vt 0.380000 0.600000
vt 0.420000 0.600000
vt 0.460000 0.600000
vt 0.500000 0.600000
vt 0.540000 0.600000
vt 0.580000 0.600000
vt 0.620000 0.600000
vt 0.660000 0.600000
vt 0.700000 0.600000
vt 0.350000 0.700000
vt 0.380000 0.700000
vt 0.410000 0.700000
vt 0.440000 0.700000
vt 0.470000 0.700000
vt 0.500000 0.700000
vt 0.530000 0.700000
vt 0.560000 0.700000
vt 0.590000 0.700000
vt 0.620000 0.700000
vt 0.650000 0.700000
vt 0.400000 0.800000
vt 0.420000 0.800000
vt 0.440000 0.800000
vt 0.460000 0.800000
vt 0.480000 0.800000
vt 0.500000 0.800000
vt 0.520000 0.800000
vt 0.540000 0.800000
vt 0.560000 0.800000
vt 0.580000 0.800000
vt 0.600000 0.800000
vt 0.450000 0.900000
vt 0.460000 0.900000
vt 0.470000 0.900000
vt 0.480000 0.900000
vt 0.490000 0.900000
vt 0.500000 0.900000
vt 0.510000 0.900000
vt 0.520000 0.900000
vt 0.530000 0.900000
vt 0.540000 0.900000
vt 0.550000 0.900000
vt 0.500000 1.000000
vt 0.422746 0.250000
vt 0.577254 0.250000
vt 0.422746 0.396946
vt 0.577254 0.396946
vt 0.422746 0.103054
vt 0.577254 0.103054
vn 0.646515 0.634033 -0.424288
vn 0.318700 0.530166 -0.785719
vn 0.259881 0.502612 -0.824526
vn 0.639346 0.614625 -0.462031
vn -0.228760 0.358618 -0.905021
vn -0.311271 0.345615 -0.885246
vn -0.771612 0.186711 -0.608074
vn -0.800414 0.222389 -0.556669
vn -0.993293 0.115622 0.000000
vn -0.983850 0.178993 0.000000
vn -0.771612 0.186711 0.608074
vn -0.800414 0.222389 0.556669
vn -0.228760 0.358618 0.905021
vn -0.311270 0.345615 0.885246
vn 0.318700 0.530166 0.785719
vn 0.259882 0.502612 0.824526
vn 0.646515 0.634033 0.424288
vn 0.639346 0.614625 0.462031
vn 0.745921 0.666034 -0.000000
vn 0.758416 0.651771 -0.000000
vn 0.283754 0.358518 -0.889353
vn 0.748903 0.396004 -0.531343
vn -0.320793 0.322769 -0.890456
vn -0.787246 0.302099 -0.537568
vn -0.955282 0.295697 0.000000
vn -0.787246 0.302099 0.537569
vn -0.320793 0.322769 0.890456
vn 0.283754 0.358518 0.889353
vn 0.748903 0.396004 0.531343
vn 0.911797 0.410640 -0.000000
vn 0.335024 0.202915 -0.920100
vn 0.820179 0.135218 -0.555898
vn -0.292044 0.278000 -0.915110
vn -0.771564 0.328650 -0.544681
vn -0.938601 0.345006 0.000000
vn -0.771564 0.328650 0.544681
vn -0.292044 0.278000 0.915110
vn 0.335024 0.202915 0.920100
vn 0.820179 0.135218 0.555898
vn 0.994108 0.108394 0.000000
vn 0.356987 0.193107 -0.913931
vn 0.828586 0.131488 -0.544203
vn -0.265988 0.274609 -0.924035
vn -0.765404 0.337865 -0.547726
vn -0.934556 0.355816 0.000000
vn -0.765404 0.337865 0.547726
vn -0.265987 0.274609 0.924035
vn 0.356987 0.193107 0.913931
vn 0.828586 0.131488 0.544203
vn 0.993925 0.110055 0.000000
vn 0.000000 -1.000000 0.000000
vn 0.000000 -1.000000 0.000000
vn 0.000000 -1.000000 -0.000000
vn 0.000000 -1.000000 0.000000
vn 0.594663 0.278680 -0.754131
vn 0.034181 0.280638 -0.959205
vn -0.588170 0.266868 -0.763438
vn -0.937638 0.243697 -0.247886
vn -0.937638 0.243697 0.247886
vn -0.588170 0.266868 0.763438
vn 0.034181 0.280638 0.959205
vn 0.594663 0.278680 0.754131
vn 0.925535 0.272592 0.262827
vn 0.925535 0.272592 -0.262827
vn 0.000000 -1.000000 0.000000
vn 0.000000 -1.000000 0.000000
vn 0.000000 -1.000000 -0.000000
vn 0.000000 -1.000000 0.000000
vn 0.000000 -1.000000 -0.000000
vn 0.000000 -1.000000 -0.000000
vn 0.000000 -1.000000 0.000000
vn 0.000000 -1.000000 0.000000
vn 0.000000 -1.000000 0.000000
vn 0.000000 -1.000000 0.000000
vn 0.000000 -1.000000 0.000000
vn 0.000000 -1.000000 0.000000
s 1
g pCone5
usemtl initialShadingGroup
f 1/11/1 2/12/2 12/23/3 11/22/4
f 2/12/2 3/13/5 13/24/6 12/23/3
f 3/13/5 4/14/7 14/25/8 13/24/6
f 4/14/7 5/15/9 15/26/10 14/25/8
f 5/15/9 6/16/11 16/27/12 15/26/10
f 6/16/11 7/17/13 17/28/14 16/27/12
f 7/17/13 8/18/15 18/29/16 17/28/14
f 8/18/15 9/19/17 19/30/18 18/29/16
f 9/19/17 10/20/19 20/31/20 19/30/18
f 10/20/19 1/21/1 11/32/4 20/31/20
f 11/22/4 12/23/3 22/34/21 21/33/22
f 12/23/3 13/24/6 23/35/23 22/34/21
f 13/24/6 14/25/8 24/36/24 23/35/23
f 14/25/8 15/26/10 25/37/25 24/36/24
f 15/26/10 16/27/12 26/38/26 25/37/25
f 16/27/12 17/28/14 27/39/27 26/38/26
f 17/28/14 18/29/16 28/40/28 27/39/27
f 18/29/16 19/30/18 29/41/29 28/40/28
f 19/30/18 20/31/20 30/42/30 29/41/29
f 20/31/20 11/32/4 21/43/22 30/42/30
f 21/33/22 22/34/21 32/45/31 31/44/32
f 22/34/21 23/35/23 33/46/33 32/45/31
f 23/35/23 24/36/24 34/47/34 33/46/33
f 24/36/24 25/37/25 35/48/35 34/47/34
f 25/37/25 26/38/26 36/49/36 35/48/35
f 26/38/26 27/39/27 37/50/37 36/49/36
f 27/39/27 28/40/28 38/51/38 37/50/37
f 28/40/28 29/41/29 39/52/39 38/51/38
f 29/41/29 30/42/30 40/53/40 39/52/39
f 30/42/30 21/43/22 31/54/32 40/53/40
f 31/44/32 32/45/31 42/56/41 41/55/42
f 32/45/31 33/46/33 43/57/43 42/56/41
f 33/46/33 34/47/34 44/58/44 43/57/43
f 34/47/34 35/48/35 45/59/45 44/58/44
f 35/48/35 36/49/36 46/60/46 45/59/45
f 36/49/36 37/50/37 47/61/47 46/60/46
f 37/50/37 38/51/38 48/62/48 47/61/47
f 38/51/38 39/52/39 49/63/49 48/62/48
f 39/52/39 40/53/40 50/64/50 49/63/49
f 40/53/40 31/54/32 41/65/42 50/64/50
s 2
f 54/69/51 55/70/52 8/8/53 7/7/54
s 1
f 41/55/42 42/56/41 51/66/55
f 42/56/41 43/57/43 51/66/56
f 43/57/43 44/58/44 51/66/57
f 44/58/44 45/59/45 51/66/58
f 45/59/45 46/60/46 51/66/59
f 46/60/46 47/61/47 51/66/60
f 47/61/47 48/62/48 51/66/61
f 48/62/48 49/63/49 51/66/62
f 49/63/49 50/64/50 51/66/63
f 50/64/50 41/65/42 51/66/64
s 2
f 6/6/65 54/69/51 7/7/54
f 55/70/52 9/9/66 8/8/53
f 4/4/67 56/71/68 52/67/69 5/5/70
f 56/71/68 57/72/71 53/68/72 52/67/69
f 1/1/73 10/10/74 53/68/72 57/72/71
f 5/5/70 52/67/69 54/69/51 6/6/65
f 52/67/69 53/68/72 55/70/52 54/69/51
f 53/68/72 10/10/74 9/9/66 55/70/52
f 3/3/75 56/71/68 4/4/67
f 2/2/76 57/72/71 56/71/68 3/3/75
f 1/1/73 57/72/71 2/2/76
