# This file uses centimeters as units for non-parametric coordinates.

mtllib TriangularBush6.mtl
g default
v -7.408943 -0.069204 -9.473125
v -8.327296 -0.069204 -10.140349
v -9.462444 -0.069204 -10.140348
v -10.380798 -0.069204 -9.473125
v -10.731578 -0.069204 -8.393536
v -10.380798 -0.069204 -7.313946
v -9.462444 -0.069204 -6.646723
v -8.327296 -0.069204 -6.646723
v -7.408943 -0.069204 -7.313946
v -7.058162 -0.069204 -8.393536
v -6.874936 1.040176 -9.784877
v -8.058481 1.040176 -10.644773
v -9.521424 1.040176 -10.644772
v -10.704969 1.040176 -9.784876
v -11.157043 1.040176 -8.393535
v -10.704969 1.040176 -7.002195
v -9.521423 1.040176 -6.142299
v -8.058481 1.040176 -6.142299
v -6.874936 1.040176 -7.002195
v -6.422862 1.040176 -8.393536
v -7.035844 2.149556 -9.499061
v -7.976260 2.149556 -10.182313
v -9.138678 2.149556 -10.182313
v -10.079094 2.149556 -9.499061
v -10.438301 2.149556 -8.393535
v -10.079094 2.149556 -7.288010
v -9.138678 2.149556 -6.604758
v -7.976260 2.149556 -6.604758
v -7.035844 2.149556 -7.288011
v -6.676638 2.149556 -8.393536
v -7.406827 3.258937 -9.128302
v -8.031857 3.258937 -9.582412
v -8.804435 3.258937 -9.582412
v -9.429465 3.258937 -9.128301
v -9.668205 3.258937 -8.393535
v -9.429464 3.258937 -7.658769
v -8.804435 3.258937 -7.204659
v -8.031856 3.258937 -7.204659
v -7.406827 3.258937 -7.658770
v -7.168087 3.258937 -8.393536
v -8.089839 4.368317 -8.719574
v -8.367184 4.368317 -8.921077
v -8.710001 4.368317 -8.921077
v -8.987346 4.368317 -8.719574
v -9.093283 4.368317 -8.393536
v -8.987346 4.368317 -8.067497
v -8.710001 4.368317 -7.865994
v -8.367184 4.368317 -7.865994
v -8.089839 4.368317 -8.067497
v -7.983902 4.368317 -8.393536
v -8.789952 5.477697 -8.393536
v -8.894870 -0.069204 -8.393536
vt 0.702254 0.103054
vt 0.577254 0.012236
vt 0.422746 0.012236
vt 0.297746 0.103054
vt 0.250000 0.250000
vt 0.297746 0.396946
vt 0.422746 0.487764
vt 0.577254 0.487764
vt 0.702254 0.396946
vt 0.750000 0.250000
vt 0.250000 0.500000
vt 0.300000 0.500000
vt 0.350000 0.500000
vt 0.400000 0.500000
vt 0.450000 0.500000
vt 0.500000 0.500000
vt 0.550000 0.500000
vt 0.600000 0.500000
vt 0.650000 0.500000
vt 0.700000 0.500000
vt 0.750000 0.500000
vt 0.300000 0.600000
vt 0.340000 0.600000
vt 0.380000 0.600000
vt 0.420000 0.600000
vt 0.460000 0.600000
vt 0.500000 0.600000
vt 0.540000 0.600000
vt 0.580000 0.600000
vt 0.620000 0.600000
vt 0.660000 0.600000
vt 0.700000 0.600000
vt 0.350000 0.700000
vt 0.380000 0.700000
vt 0.410000 0.700000
vt 0.440000 0.700000
vt 0.470000 0.700000
vt 0.500000 0.700000
vt 0.530000 0.700000
vt 0.560000 0.700000
vt 0.590000 0.700000
vt 0.620000 0.700000
vt 0.650000 0.700000
vt 0.400000 0.800000
vt 0.420000 0.800000
vt 0.440000 0.800000
vt 0.460000 0.800000
vt 0.480000 0.800000
vt 0.500000 0.800000
vt 0.520000 0.800000
vt 0.540000 0.800000
vt 0.560000 0.800000
vt 0.580000 0.800000
vt 0.600000 0.800000
vt 0.450000 0.900000
vt 0.460000 0.900000
vt 0.470000 0.900000
vt 0.480000 0.900000
vt 0.490000 0.900000
vt 0.500000 0.900000
vt 0.510000 0.900000
vt 0.520000 0.900000
vt 0.530000 0.900000
vt 0.540000 0.900000
vt 0.550000 0.900000
vt 0.500000 1.000000
vt 0.500000 0.250000
vn 0.703086 -0.484663 -0.520358
vn 0.263318 -0.451454 -0.852557
vn 0.297742 -0.056409 -0.952978
vn 0.797926 -0.128488 -0.588901
vn -0.295074 -0.408438 -0.863776
vn -0.318732 0.030572 -0.947352
vn -0.756039 -0.372216 -0.538387
vn -0.808562 0.098343 -0.580134
vn -0.933689 -0.358085 0.000000
vn -0.992347 0.123479 0.000000
vn -0.756039 -0.372216 0.538387
vn -0.808562 0.098343 0.580134
vn -0.295074 -0.408438 0.863776
vn -0.318731 0.030572 0.947352
vn 0.263318 -0.451454 0.852557
vn 0.297742 -0.056409 0.952978
vn 0.703086 -0.484662 0.520358
vn 0.797926 -0.128488 0.588901
vn 0.867781 -0.496946 0.000000
vn 0.987722 -0.156223 0.000000
vn 0.294414 0.395440 -0.870028
vn 0.769119 0.326189 -0.549597
vn -0.262358 0.474810 -0.840074
vn -0.681125 0.533040 -0.501934
vn -0.832666 0.553775 0.000000
vn -0.681125 0.533040 0.501934
vn -0.262358 0.474810 0.840074
vn 0.294414 0.395439 0.870027
vn 0.769119 0.326189 0.549597
vn 0.954310 0.298817 0.000000
vn 0.284194 0.495540 -0.820776
vn 0.716289 0.479118 -0.507322
vn -0.249407 0.515704 -0.819662
vn -0.679431 0.531733 -0.505602
vn -0.843098 0.537761 0.000000
vn -0.679431 0.531733 0.505602
vn -0.249407 0.515704 0.819662
vn 0.284194 0.495540 0.820776
vn 0.716289 0.479118 0.507322
vn 0.881139 0.472858 0.000000
vn 0.256577 0.540700 -0.801132
vn 0.658818 0.578186 -0.481311
vn -0.273019 0.488840 -0.828551
vn -0.727036 0.441985 -0.525422
vn -0.906197 0.422856 0.000000
vn -0.727036 0.441985 0.525422
vn -0.273019 0.488840 0.828551
vn 0.256577 0.540700 0.801131
vn 0.658818 0.578186 0.481311
vn 0.806280 0.591534 0.000000
vn 0.000000 -1.000000 -0.000000
vn 0.000000 -1.000000 0.000000
vn 0.000000 -1.000000 -0.000000
vn 0.502083 0.519954 -0.691058
vn -0.000000 0.429446 -0.903093
vn -0.556100 0.323895 -0.765405
vn -0.920445 0.251671 -0.299070
vn -0.920445 0.251671 0.299070
vn -0.556100 0.323895 0.765405
vn 0.000000 0.429446 0.903092
vn 0.502083 0.519954 0.691058
vn 0.782424 0.568491 0.254225
vn 0.782424 0.568491 -0.254225
vn 0.000000 -1.000000 0.000000
vn 0.000000 -1.000000 0.000000
vn 0.000000 -1.000000 0.000000
vn 0.000000 -1.000000 0.000000
vn 0.000000 -1.000000 0.000000
vn 0.000000 -1.000000 0.000000
vn 0.000000 -1.000000 0.000000
vn 0.000000 -1.000000 0.000000
s 1
g pCone1
usemtl initialShadingGroup
f 1/11/1 2/12/2 12/23/3 11/22/4
f 2/12/2 3/13/5 13/24/6 12/23/3
f 3/13/5 4/14/7 14/25/8 13/24/6
f 4/14/7 5/15/9 15/26/10 14/25/8
f 5/15/9 6/16/11 16/27/12 15/26/10
f 6/16/11 7/17/13 17/28/14 16/27/12
f 7/17/13 8/18/15 18/29/16 17/28/14
f 8/18/15 9/19/17 19/30/18 18/29/16
f 9/19/17 10/20/19 20/31/20 19/30/18
f 10/20/19 1/21/1 11/32/4 20/31/20
f 11/22/4 12/23/3 22/34/21 21/33/22
f 12/23/3 13/24/6 23/35/23 22/34/21
f 13/24/6 14/25/8 24/36/24 23/35/23
f 14/25/8 15/26/10 25/37/25 24/36/24
f 15/26/10 16/27/12 26/38/26 25/37/25
f 16/27/12 17/28/14 27/39/27 26/38/26
f 17/28/14 18/29/16 28/40/28 27/39/27
f 18/29/16 19/30/18 29/41/29 28/40/28
f 19/30/18 20/31/20 30/42/30 29/41/29
f 20/31/20 11/32/4 21/43/22 30/42/30
f 21/33/22 22/34/21 32/45/31 31/44/32
f 22/34/21 23/35/23 33/46/33 32/45/31
f 23/35/23 24/36/24 34/47/34 33/46/33
f 24/36/24 25/37/25 35/48/35 34/47/34
f 25/37/25 26/38/26 36/49/36 35/48/35
f 26/38/26 27/39/27 37/50/37 36/49/36
f 27/39/27 28/40/28 38/51/38 37/50/37
f 28/40/28 29/41/29 39/52/39 38/51/38
f 29/41/29 30/42/30 40/53/40 39/52/39
f 30/42/30 21/43/22 31/54/32 40/53/40
f 31/44/32 32/45/31 42/56/41 41/55/42
f 32/45/31 33/46/33 43/57/43 42/56/41
f 33/46/33 34/47/34 44/58/44 43/57/43
f 34/47/34 35/48/35 45/59/45 44/58/44
f 35/48/35 36/49/36 46/60/46 45/59/45
f 36/49/36 37/50/37 47/61/47 46/60/46
f 37/50/37 38/51/38 48/62/48 47/61/47
f 38/51/38 39/52/39 49/63/49 48/62/48
f 39/52/39 40/53/40 50/64/50 49/63/49
f 40/53/40 31/54/32 41/65/42 50/64/50
s 2
f 2/2/51 52/67/52 3/3/53
s 1
f 41/55/42 42/56/41 51/66/54
f 42/56/41 43/57/43 51/66/55
f 43/57/43 44/58/44 51/66/56
f 44/58/44 45/59/45 51/66/57
f 45/59/45 46/60/46 51/66/58
f 46/60/46 47/61/47 51/66/59
f 47/61/47 48/62/48 51/66/60
f 48/62/48 49/63/49 51/66/61
f 49/63/49 50/64/50 51/66/62
f 50/64/50 41/65/42 51/66/63
s 2
f 1/1/64 52/67/52 2/2/51
f 52/67/52 8/8/65 7/7/66
f 3/3/53 52/67/52 4/4/67
f 52/67/52 9/9/68 8/8/65
f 4/4/67 52/67/52 5/5/69
f 52/67/52 10/10/70 9/9/68
f 5/5/69 52/67/52 6/6/71
f 1/1/64 10/10/70 52/67/52
f 6/6/71 52/67/52 7/7/66
