# This file uses centimeters as units for non-parametric coordinates.

mtllib TriangularBush1.mtl
g default
v 13.261966 0.458072 3.279006
v 10.454363 0.368801 1.239164
v 6.983975 0.228220 1.239165
v 4.176373 0.228219 3.279008
v 3.103965 0.368801 6.579543
v 4.176373 0.458072 9.880079
v 6.983976 0.368801 11.919920
v 10.454364 0.228219 11.919921
v 13.261966 0.228219 9.880078
v 14.334375 0.368801 6.579543
v 13.833639 3.113900 2.863661
v 10.672723 3.113900 0.567123
v 6.765616 3.085807 0.567123
v 3.604701 3.085807 2.863663
v 2.397338 3.113900 6.579543
v 3.604702 3.113900 10.295423
v 6.765617 3.113900 12.591962
v 10.672723 3.085807 12.591961
v 13.833639 3.085807 10.295422
v 15.041000 3.113900 6.579543
v 14.539481 5.359982 3.131634
v 11.606515 5.359982 1.000710
v 7.981169 5.359982 1.000711
v 5.048204 5.359982 3.131635
v 3.927912 5.359982 6.579543
v 5.048204 5.359982 10.027451
v 7.981170 5.359982 12.158374
v 11.606515 5.359982 12.158374
v 14.539480 5.359982 10.027450
v 15.659771 5.359982 6.579543
v 11.962987 7.606064 4.785275
v 10.436691 7.606064 3.676357
v 8.550087 7.606064 3.676357
v 7.023792 7.606064 4.785275
v 6.440799 7.606064 6.579543
v 7.023792 7.606064 8.373810
v 8.550087 7.606064 9.482729
v 10.436692 7.606064 9.482728
v 11.962986 7.606064 8.373810
v 12.545979 7.606064 6.579543
v 9.364126 9.852146 5.343985
v 8.313098 9.852146 4.580369
v 7.013957 9.852146 4.580369
v 5.962929 9.852146 5.343985
v 5.561471 9.852146 6.579543
v 5.962929 9.852146 7.815100
v 7.013957 9.852146 8.578716
v 8.313099 9.852146 8.578716
v 9.364126 9.852146 7.815100
v 9.765583 9.852146 6.579543
v 9.920368 12.098228 6.579543
v 8.182965 -0.039477 2.889432
v 10.122967 -0.039477 5.559624
v 5.375364 -0.039477 4.929274
v 7.315366 -0.039477 7.599466
v 9.255373 -0.039477 10.269654
v 12.062975 -0.039477 8.229811
vt 0.702254 0.103054
vt 0.577254 0.012236
vt 0.422746 0.012236
vt 0.297746 0.103054
vt 0.250000 0.250000
vt 0.297746 0.396946
vt 0.422746 0.487764
vt 0.577254 0.487764
vt 0.702254 0.396946
vt 0.750000 0.250000
vt 0.250000 0.500000
vt 0.300000 0.500000
vt 0.350000 0.500000
vt 0.400000 0.500000
vt 0.450000 0.500000
vt 0.500000 0.500000
vt 0.550000 0.500000
vt 0.600000 0.500000
vt 0.650000 0.500000
vt 0.700000 0.500000
vt 0.750000 0.500000
vt 0.300000 0.600000
vt 0.340000 0.600000
vt 0.380000 0.600000
vt 0.420000 0.600000
vt 0.460000 0.600000
vt 0.500000 0.600000
vt 0.540000 0.600000
vt 0.580000 0.600000
vt 0.620000 0.600000
vt 0.660000 0.600000
vt 0.700000 0.600000
vt 0.350000 0.700000
vt 0.380000 0.700000
vt 0.410000 0.700000
vt 0.440000 0.700000
vt 0.470000 0.700000
vt 0.500000 0.700000
vt 0.530000 0.700000
vt 0.560000 0.700000
vt 0.590000 0.700000
vt 0.620000 0.700000
vt 0.650000 0.700000
vt 0.400000 0.800000
vt 0.420000 0.800000
vt 0.440000 0.800000
vt 0.460000 0.800000
vt 0.480000 0.800000
vt 0.500000 0.800000
vt 0.520000 0.800000
vt 0.540000 0.800000
vt 0.560000 0.800000
vt 0.580000 0.800000
vt 0.600000 0.800000
vt 0.450000 0.900000
vt 0.460000 0.900000
vt 0.470000 0.900000
vt 0.480000 0.900000
vt 0.490000 0.900000
vt 0.500000 0.900000
vt 0.510000 0.900000
vt 0.520000 0.900000
vt 0.530000 0.900000
vt 0.540000 0.900000
vt 0.550000 0.900000
vt 0.500000 1.000000
vt 0.476127 0.085709
vt 0.562500 0.204591
vt 0.351127 0.176527
vt 0.437500 0.295409
vt 0.523873 0.414291
vt 0.648873 0.323473
vn 0.782715 -0.252914 -0.568676
vn 0.291968 -0.248597 -0.923555
vn 0.268916 -0.092957 -0.958667
vn 0.776180 -0.212309 -0.593691
vn -0.303936 -0.242466 -0.921322
vn -0.345266 0.032838 -0.937930
vn -0.782308 -0.242465 -0.573764
vn -0.815684 0.118626 -0.566204
vn -0.968576 -0.248597 -0.007716
vn -0.988225 0.152999 -0.001822
vn -0.782715 -0.252914 0.568676
vn -0.816246 0.123696 0.564307
vn -0.291968 -0.248597 0.923555
vn -0.343828 0.034911 0.938383
vn 0.303936 -0.242466 0.921322
vn 0.271782 -0.092686 0.957885
vn 0.782308 -0.242466 0.573764
vn 0.777269 -0.206841 0.594197
vn 0.968576 -0.248597 0.007716
vn 0.966541 -0.256508 0.000985
vn 0.325027 0.447733 -0.833002
vn 0.769275 0.377551 -0.515434
vn -0.217068 0.540811 -0.812653
vn -0.623030 0.613829 -0.484818
vn -0.766836 0.641842 -0.001135
vn -0.622038 0.616281 0.482976
vn -0.214935 0.541257 0.812923
vn 0.325990 0.445856 0.833632
vn 0.769527 0.375874 0.516281
vn 0.935705 0.352783 0.000248
vn 0.223259 0.749447 -0.623285
vn 0.502094 0.789789 -0.352328
vn -0.205586 0.670298 -0.713046
vn -0.657418 0.563373 -0.500412
vn -0.861481 0.507789 0.000000
vn -0.657418 0.563373 0.500412
vn -0.205586 0.670298 0.713046
vn 0.223260 0.749447 0.623285
vn 0.502094 0.789789 0.352328
vn 0.597408 0.801937 0.000000
vn 0.168117 0.535769 -0.827459
vn 0.590313 0.638410 -0.493926
vn -0.394498 0.368800 -0.841640
vn -0.828153 0.251859 -0.500729
vn -0.975025 0.222093 0.000000
vn -0.828153 0.251859 0.500729
vn -0.394497 0.368800 0.841640
vn 0.168118 0.535769 0.827459
vn 0.590313 0.638410 0.493926
vn 0.745739 0.666238 0.000000
vn -0.098527 -0.990682 0.094030
vn -0.022254 -0.997354 0.069208
vn 0.053422 -0.991097 0.121956
vn 0.563078 0.286883 -0.775011
vn -0.000000 0.664857 -0.746970
vn -0.328973 0.828707 -0.452793
vn -0.453061 0.879241 -0.147209
vn -0.453061 0.879241 0.147209
vn -0.328973 0.828707 0.452793
vn 0.000000 0.664857 0.746971
vn 0.563078 0.286883 0.775010
vn 0.949020 -0.065400 0.308356
vn 0.949020 -0.065400 -0.308355
vn -0.099479 -0.991097 -0.088494
vn -0.072697 -0.997354 -0.000222
vn -0.119874 -0.990682 0.064648
vn -0.053654 -0.997798 0.038982
vn -0.108589 -0.990951 0.078894
vn 0.098527 -0.990682 -0.094029
vn 0.022254 -0.997354 -0.069208
vn -0.053422 -0.991097 -0.121956
vn 0.108588 -0.990951 -0.078894
vn 0.053654 -0.997798 -0.038982
vn 0.072697 -0.997354 0.000222
vn 0.119874 -0.990682 -0.064648
vn 0.099479 -0.991097 0.088494
s 1
g pCone6
usemtl initialShadingGroup
f 1/11/1 2/12/2 12/23/3 11/22/4
f 2/12/2 3/13/5 13/24/6 12/23/3
f 3/13/5 4/14/7 14/25/8 13/24/6
f 4/14/7 5/15/9 15/26/10 14/25/8
f 5/15/9 6/16/11 16/27/12 15/26/10
f 6/16/11 7/17/13 17/28/14 16/27/12
f 7/17/13 8/18/15 18/29/16 17/28/14
f 8/18/15 9/19/17 19/30/18 18/29/16
f 9/19/17 10/20/19 20/31/20 19/30/18
f 10/20/19 1/21/1 11/32/4 20/31/20
f 11/22/4 12/23/3 22/34/21 21/33/22
f 12/23/3 13/24/6 23/35/23 22/34/21
f 13/24/6 14/25/8 24/36/24 23/35/23
f 14/25/8 15/26/10 25/37/25 24/36/24
f 15/26/10 16/27/12 26/38/26 25/37/25
f 16/27/12 17/28/14 27/39/27 26/38/26
f 17/28/14 18/29/16 28/40/28 27/39/27
f 18/29/16 19/30/18 29/41/29 28/40/28
f 19/30/18 20/31/20 30/42/30 29/41/29
f 20/31/20 11/32/4 21/43/22 30/42/30
f 21/33/22 22/34/21 32/45/31 31/44/32
f 22/34/21 23/35/23 33/46/33 32/45/31
f 23/35/23 24/36/24 34/47/34 33/46/33
f 24/36/24 25/37/25 35/48/35 34/47/34
f 25/37/25 26/38/26 36/49/36 35/48/35
f 26/38/26 27/39/27 37/50/37 36/49/36
f 27/39/27 28/40/28 38/51/38 37/50/37
f 28/40/28 29/41/29 39/52/39 38/51/38
f 29/41/29 30/42/30 40/53/40 39/52/39
f 30/42/30 21/43/22 31/54/32 40/53/40
f 31/44/32 32/45/31 42/56/41 41/55/42
f 32/45/31 33/46/33 43/57/43 42/56/41
f 33/46/33 34/47/34 44/58/44 43/57/43
f 34/47/34 35/48/35 45/59/45 44/58/44
f 35/48/35 36/49/36 46/60/46 45/59/45
f 36/49/36 37/50/37 47/61/47 46/60/46
f 37/50/37 38/51/38 48/62/48 47/61/47
f 38/51/38 39/52/39 49/63/49 48/62/48
f 39/52/39 40/53/40 50/64/50 49/63/49
f 40/53/40 31/54/32 41/65/42 50/64/50
s 2
f 7/7/51 56/71/52 8/8/53
s 1
f 41/55/42 42/56/41 51/66/54
f 42/56/41 43/57/43 51/66/55
f 43/57/43 44/58/44 51/66/56
f 44/58/44 45/59/45 51/66/57
f 45/59/45 46/60/46 51/66/58
f 46/60/46 47/61/47 51/66/59
f 47/61/47 48/62/48 51/66/60
f 48/62/48 49/63/49 51/66/61
f 49/63/49 50/64/50 51/66/62
f 50/64/50 41/65/42 51/66/63
s 2
f 4/4/64 54/69/65 5/5/66
f 54/69/65 55/70/67 6/6/68 5/5/66
f 2/2/69 52/67/70 3/3/71
f 1/1/72 53/68/73 52/67/70 2/2/69
f 57/72/74 10/10/75 9/9/76
f 3/3/71 52/67/70 54/69/65 4/4/64
f 52/67/70 53/68/73 55/70/67 54/69/65
f 56/71/52 57/72/74 9/9/76 8/8/53
f 55/70/67 56/71/52 7/7/51 6/6/68
f 53/68/73 57/72/74 56/71/52 55/70/67
f 1/1/72 10/10/75 57/72/74 53/68/73
