# This file uses centimeters as units for non-parametric coordinates.

mtllib TriangularBush4.mtl
g default
v 4.364892 -0.046614 -9.906659
v 3.136615 -0.046614 -10.799055
v 1.618381 -0.046614 -10.799055
v 0.390104 -0.046614 -9.906659
v -0.079056 -0.046614 -8.462733
v 0.390104 -0.046614 -7.018806
v 1.618381 -0.046614 -6.126411
v 3.136615 -0.046614 -6.126411
v 4.364892 -0.046614 -7.018806
v 4.834052 -0.046614 -8.462733
v 5.394928 1.601409 -10.655025
v 3.530054 1.601409 -12.009935
v 1.224941 1.601409 -12.009935
v -0.639932 1.601409 -10.655025
v -1.352249 1.601409 -8.462732
v -0.639932 1.601409 -6.270440
v 1.224942 1.601409 -4.915530
v 3.530054 1.601409 -4.915530
v 5.394928 1.601409 -6.270440
v 6.107245 1.601409 -8.462733
v 4.390893 3.073438 -9.623492
v 3.403493 3.073438 -10.340880
v 2.183000 3.073438 -10.340880
v 1.195599 3.073438 -9.623492
v 0.818447 3.073438 -8.462733
v 1.195599 3.073438 -7.301974
v 2.183000 3.073438 -6.584585
v 3.403493 3.073438 -6.584585
v 4.390893 3.073438 -7.301974
v 4.768045 3.073438 -8.462733
v 3.317598 4.545468 -9.459551
v 2.469654 4.545468 -10.075619
v 1.421537 4.545468 -10.075619
v 0.573593 4.545468 -9.459551
v 0.249707 4.545468 -8.462733
v 0.573593 4.545468 -7.465914
v 1.421537 4.545468 -6.849847
v 2.469654 4.545468 -6.849847
v 3.317598 4.545468 -7.465915
v 3.641484 4.545468 -8.462733
v 3.272683 6.017497 -8.955348
v 2.853640 6.017497 -9.259801
v 2.335673 6.017497 -9.259801
v 1.916629 6.017497 -8.955348
v 1.756569 6.017497 -8.462733
v 1.916630 6.017497 -7.970117
v 2.335673 6.017497 -7.665664
v 2.853640 6.017497 -7.665665
v 3.272683 6.017497 -7.970117
v 3.432744 6.017497 -8.462733
v 2.377498 7.489526 -8.462733
v 2.612077 -0.046614 -9.184694
v 2.991636 -0.046614 -10.352857
v 2.142917 -0.046614 -7.740768
v 1.763359 -0.046614 -6.572608
vt 0.702254 0.103054
vt 0.577254 0.012236
vt 0.422746 0.012236
vt 0.297746 0.103054
vt 0.250000 0.250000
vt 0.297746 0.396946
vt 0.422746 0.487764
vt 0.577254 0.487764
vt 0.702254 0.396946
vt 0.750000 0.250000
vt 0.250000 0.500000
vt 0.300000 0.500000
vt 0.350000 0.500000
vt 0.400000 0.500000
vt 0.450000 0.500000
vt 0.500000 0.500000
vt 0.550000 0.500000
vt 0.600000 0.500000
vt 0.650000 0.500000
vt 0.700000 0.500000
vt 0.750000 0.500000
vt 0.300000 0.600000
vt 0.340000 0.600000
vt 0.380000 0.600000
vt 0.420000 0.600000
vt 0.460000 0.600000
vt 0.500000 0.600000
vt 0.540000 0.600000
vt 0.580000 0.600000
vt 0.620000 0.600000
vt 0.660000 0.600000
vt 0.700000 0.600000
vt 0.350000 0.700000
vt 0.380000 0.700000
vt 0.410000 0.700000
vt 0.440000 0.700000
vt 0.470000 0.700000
vt 0.500000 0.700000
vt 0.530000 0.700000
vt 0.560000 0.700000
vt 0.590000 0.700000
vt 0.620000 0.700000
vt 0.650000 0.700000
vt 0.400000 0.800000
vt 0.420000 0.800000
vt 0.440000 0.800000
vt 0.460000 0.800000
vt 0.480000 0.800000
vt 0.500000 0.800000
vt 0.520000 0.800000
vt 0.540000 0.800000
vt 0.560000 0.800000
vt 0.580000 0.800000
vt 0.600000 0.800000
vt 0.450000 0.900000
vt 0.460000 0.900000
vt 0.470000 0.900000
vt 0.480000 0.900000
vt 0.490000 0.900000
vt 0.500000 0.900000
vt 0.510000 0.900000
vt 0.520000 0.900000
vt 0.530000 0.900000
vt 0.540000 0.900000
vt 0.550000 0.900000
vt 0.500000 1.000000
vt 0.523873 0.176527
vt 0.562500 0.057645
vt 0.476127 0.323473
vt 0.437500 0.442355
vn 0.640215 -0.611364 -0.465143
vn 0.244540 -0.611364 -0.752618
vn 0.290479 0.066315 -0.954581
vn 0.801645 0.005529 -0.597775
vn -0.244540 -0.611364 -0.752618
vn -0.322459 0.136696 -0.936662
vn -0.640216 -0.611364 -0.465143
vn -0.800122 0.189905 -0.568982
vn -0.791350 -0.611364 -0.000000
vn -0.977837 0.209366 0.000000
vn -0.640215 -0.611364 0.465143
vn -0.800122 0.189905 0.568982
vn -0.244540 -0.611364 0.752618
vn -0.322458 0.136696 0.936662
vn 0.244540 -0.611364 0.752618
vn 0.290479 0.066315 0.954581
vn 0.640215 -0.611364 0.465143
vn 0.801645 0.005529 0.597775
vn 0.791350 -0.611364 0.000000
vn 0.999826 -0.018631 0.000000
vn 0.273116 0.653607 -0.705836
vn 0.627082 0.653973 -0.423188
vn -0.197315 0.643150 -0.739882
vn -0.616216 0.625311 -0.478815
vn -0.787439 0.616393 0.000000
vn -0.616216 0.625311 0.478815
vn -0.197315 0.643150 0.739882
vn 0.273116 0.653607 0.705836
vn 0.627082 0.653973 0.423188
vn 0.757568 0.652756 0.000000
vn 0.213289 0.353393 -0.910835
vn 0.699474 0.439144 -0.563816
vn -0.379676 0.248809 -0.891033
vn -0.827315 0.180760 -0.531860
vn -0.987026 0.160561 0.000000
vn -0.827315 0.180760 0.531860
vn -0.379676 0.248808 0.891033
vn 0.213289 0.353393 0.910835
vn 0.699474 0.439144 0.563816
vn 0.882953 0.469462 0.000000
vn 0.330439 0.418457 -0.845993
vn 0.792696 0.303249 -0.528841
vn -0.216496 0.549703 -0.806819
vn -0.609041 0.638343 -0.470730
vn -0.744526 0.667593 0.000000
vn -0.609041 0.638343 0.470731
vn -0.216496 0.549703 0.806819
vn 0.330439 0.418457 0.845993
vn 0.792696 0.303249 0.528841
vn 0.965608 0.260001 -0.000000
vn 0.000000 -1.000000 -0.000000
vn 0.000000 -1.000000 0.000000
vn 0.000000 -1.000000 -0.000001
vn 0.497727 0.531939 -0.685062
vn -0.000000 0.476153 -0.879362
vn -0.535056 0.413968 -0.736441
vn -0.882676 0.372329 -0.286799
vn -0.882676 0.372329 0.286799
vn -0.535056 0.413968 0.736441
vn 0.000000 0.476153 0.879362
vn 0.497727 0.531939 0.685062
vn 0.785803 0.563315 0.255323
vn 0.785803 0.563314 -0.255323
vn 0.000000 -1.000000 -0.000000
vn 0.000000 -1.000000 -0.000000
vn 0.000000 -1.000000 -0.000000
vn 0.000000 -1.000000 -0.000000
vn 0.000000 -1.000000 0.000000
vn 0.000000 -1.000000 0.000000
vn 0.000000 -1.000000 -0.000000
vn 0.000000 -1.000000 0.000001
vn 0.000000 -1.000000 0.000000
vn 0.000000 -1.000000 0.000000
vn 0.000000 -1.000000 -0.000000
s 1
g pCone3
usemtl initialShadingGroup
f 1/11/1 2/12/2 12/23/3 11/22/4
f 2/12/2 3/13/5 13/24/6 12/23/3
f 3/13/5 4/14/7 14/25/8 13/24/6
f 4/14/7 5/15/9 15/26/10 14/25/8
f 5/15/9 6/16/11 16/27/12 15/26/10
f 6/16/11 7/17/13 17/28/14 16/27/12
f 7/17/13 8/18/15 18/29/16 17/28/14
f 8/18/15 9/19/17 19/30/18 18/29/16
f 9/19/17 10/20/19 20/31/20 19/30/18
f 10/20/19 1/21/1 11/32/4 20/31/20
f 11/22/4 12/23/3 22/34/21 21/33/22
f 12/23/3 13/24/6 23/35/23 22/34/21
f 13/24/6 14/25/8 24/36/24 23/35/23
f 14/25/8 15/26/10 25/37/25 24/36/24
f 15/26/10 16/27/12 26/38/26 25/37/25
f 16/27/12 17/28/14 27/39/27 26/38/26
f 17/28/14 18/29/16 28/40/28 27/39/27
f 18/29/16 19/30/18 29/41/29 28/40/28
f 19/30/18 20/31/20 30/42/30 29/41/29
f 20/31/20 11/32/4 21/43/22 30/42/30
f 21/33/22 22/34/21 32/45/31 31/44/32
f 22/34/21 23/35/23 33/46/33 32/45/31
f 23/35/23 24/36/24 34/47/34 33/46/33
f 24/36/24 25/37/25 35/48/35 34/47/34
f 25/37/25 26/38/26 36/49/36 35/48/35
f 26/38/26 27/39/27 37/50/37 36/49/36
f 27/39/27 28/40/28 38/51/38 37/50/37
f 28/40/28 29/41/29 39/52/39 38/51/38
f 29/41/29 30/42/30 40/53/40 39/52/39
f 30/42/30 21/43/22 31/54/32 40/53/40
f 31/44/32 32/45/31 42/56/41 41/55/42
f 32/45/31 33/46/33 43/57/43 42/56/41
f 33/46/33 34/47/34 44/58/44 43/57/43
f 34/47/34 35/48/35 45/59/45 44/58/44
f 35/48/35 36/49/36 46/60/46 45/59/45
f 36/49/36 37/50/37 47/61/47 46/60/46
f 37/50/37 38/51/38 48/62/48 47/61/47
f 38/51/38 39/52/39 49/63/49 48/62/48
f 39/52/39 40/53/40 50/64/50 49/63/49
f 40/53/40 31/54/32 41/65/42 50/64/50
s 2
f 55/70/51 8/8/52 7/7/53
s 1
f 41/55/42 42/56/41 51/66/54
f 42/56/41 43/57/43 51/66/55
f 43/57/43 44/58/44 51/66/56
f 44/58/44 45/59/45 51/66/57
f 45/59/45 46/60/46 51/66/58
f 46/60/46 47/61/47 51/66/59
f 47/61/47 48/62/48 51/66/60
f 48/62/48 49/63/49 51/66/61
f 49/63/49 50/64/50 51/66/62
f 50/64/50 41/65/42 51/66/63
s 2
f 6/6/64 55/70/51 7/7/53
f 3/3/65 53/68/66 52/67/67 4/4/68
f 1/1/69 10/10/70 52/67/67 53/68/66
f 2/2/71 53/68/66 3/3/65
f 1/1/69 53/68/66 2/2/71
f 4/4/68 52/67/67 54/69/72 5/5/73
f 52/67/67 10/10/70 9/9/74 54/69/72
f 5/5/73 54/69/72 55/70/51 6/6/64
f 54/69/72 9/9/74 8/8/52 55/70/51
